{
  "accessors": [
    {
      "bufferView": 2,
      "componentType": 5126,
      "count": 65532,
      "max": [
        21.041147232055664,
        18.719213485717773,
        22.755001068115234
      ],
      "min": [
        -20.305931091308594,
        -19.81401252746582,
        0.579808235168457
      ],
      "type": "VEC3"
    },
    {
      "bufferView": 2,
      "byteOffset": 786384,
      "componentType": 5126,
      "count": 65532,
      "max": [
        0.999996542930603,
        0.9999776482582092,
        1.0
      ],
      "min": [
        -0.9999995231628418,
        -0.9999994039535522,
        -1.0
      ],
      "type": "VEC3"
    },
    {
      "bufferView": 1,
      "componentType": 5126,
      "count": 65532,
      "max": [
        0.999783992767334,
        0.9405519962310791
      ],
      "min": [
        0.00012199999764561653,
        0.0003800000122282654
      ],
      "type": "VEC2"
    },
    {
      "bufferView": 0,
      "componentType": 5125,
      "count": 276984,
      "type": "SCALAR"
    },
    {
      "bufferView": 2,
      "byteOffset": 1572768,
      "componentType": 5126,
      "count": 65532,
      "max": [
        15.90174388885498,
        13.190363883972168,
        22.261629104614258
      ],
      "min": [
        -16.935983657836914,
        -14.905864715576172,
        0.579808235168457
      ],
      "type": "VEC3"
    },
    {
      "bufferView": 2,
      "byteOffset": 2359152,
      "componentType": 5126,
      "count": 65532,
      "max": [
        0.999988317489624,
        0.9999906420707703,
        1.0
      ],
      "min": [
        -0.9999826550483704,
        -0.9999968409538269,
        -1.0
      ],
      "type": "VEC3"
    },
    {
      "bufferView": 1,
      "byteOffset": 524256,
      "componentType": 5126,
      "count": 65532,
      "max": [
        0.9976300001144409,
        0.9405519962310791
      ],
      "min": [
        0.0008539999835193157,
        0.00037299998803064227
      ],
      "type": "VEC2"
    },
    {
      "bufferView": 0,
      "byteOffset": 1107936,
      "componentType": 5125,
      "count": 302601,
      "type": "SCALAR"
    },
    {
      "bufferView": 2,
      "byteOffset": 3145536,
      "componentType": 5126,
      "count": 65532,
      "max": [
        17.128236770629883,
        13.278822898864746,
        22.235271453857422
      ],
      "min": [
        -17.099777221679688,
        -14.322970390319824,
        0.579808235168457
      ],
      "type": "VEC3"
    },
    {
      "bufferView": 2,
      "byteOffset": 3931920,
      "componentType": 5126,
      "count": 65532,
      "max": [
        0.9999989867210388,
        0.9999968409538269,
        1.0
      ],
      "min": [
        -0.9999997615814209,
        -0.9999999403953552,
        -1.0
      ],
      "type": "VEC3"
    },
    {
      "bufferView": 1,
      "byteOffset": 1048512,
      "componentType": 5126,
      "count": 65532,
      "max": [
        0.9997140169143677,
        0.9405519962310791
      ],
      "min": [
        0.00012199999764561653,
        0.00037299998803064227
      ],
      "type": "VEC2"
    },
    {
      "bufferView": 0,
      "byteOffset": 2318340,
      "componentType": 5125,
      "count": 271011,
      "type": "SCALAR"
    },
    {
      "bufferView": 2,
      "byteOffset": 4718304,
      "componentType": 5126,
      "count": 65532,
      "max": [
        17.184114456176758,
        14.253779411315918,
        22.262903213500977
      ],
      "min": [
        -14.96320915222168,
        -14.739090919494629,
        0.579808235168457
      ],
      "type": "VEC3"
    },
    {
      "bufferView": 2,
      "byteOffset": 5504688,
      "componentType": 5126,
      "count": 65532,
      "max": [
        0.9999995231628418,
        0.9999969005584717,
        1.0
      ],
      "min": [
        -0.9999969601631165,
        -0.9999935626983643,
        -1.0
      ],
      "type": "VEC3"
    },
    {
      "bufferView": 1,
      "byteOffset": 1572768,
      "componentType": 5126,
      "count": 65532,
      "max": [
        0.9987289905548096,
        0.9405519962310791
      ],
      "min": [
        0.00012199999764561653,
        0.0004619999963324517
      ],
      "type": "VEC2"
    },
    {
      "bufferView": 0,
      "byteOffset": 3402384,
      "componentType": 5125,
      "count": 256002,
      "type": "SCALAR"
    },
    {
      "bufferView": 2,
      "byteOffset": 6291072,
      "componentType": 5126,
      "count": 65532,
      "max": [
        16.410755157470703,
        13.096774101257324,
        22.25476837158203
      ],
      "min": [
        -16.96146583557129,
        -14.54417896270752,
        0.579808235168457
      ],
      "type": "VEC3"
    },
    {
      "bufferView": 2,
      "byteOffset": 7077456,
      "componentType": 5126,
      "count": 65532,
      "max": [
        0.9999932050704956,
        0.9999959468841553,
        1.0
      ],
      "min": [
        -0.9999984502792358,
        -1.0,
        -1.0
      ],
      "type": "VEC3"
    },
    {
      "bufferView": 1,
      "byteOffset": 2097024,
      "componentType": 5126,
      "count": 65532,
      "max": [
        0.9996280074119568,
        0.9405519962310791
      ],
      "min": [
        0.00012199999764561653,
        0.00038899999344721437
      ],
      "type": "VEC2"
    },
    {
      "bufferView": 0,
      "byteOffset": 4426392,
      "componentType": 5125,
      "count": 253665,
      "type": "SCALAR"
    },
    {
      "bufferView": 2,
      "byteOffset": 7863840,
      "componentType": 5126,
      "count": 65532,
      "max": [
        17.117290496826172,
        13.062775611877441,
        22.213727951049805
      ],
      "min": [
        -16.066986083984375,
        -14.365119934082031,
        0.579808235168457
      ],
      "type": "VEC3"
    },
    {
      "bufferView": 2,
      "byteOffset": 8650224,
      "componentType": 5126,
      "count": 65532,
      "max": [
        0.9999321699142456,
        0.9999969601631165,
        1.0
      ],
      "min": [
        -0.999997079372406,
        -0.9999963045120239,
        -1.0
      ],
      "type": "VEC3"
    },
    {
      "bufferView": 1,
      "byteOffset": 2621280,
      "componentType": 5126,
      "count": 65532,
      "max": [
        0.999809980392456,
        0.9405519962310791
      ],
      "min": [
        0.00012199999764561653,
        0.000450999999884516
      ],
      "type": "VEC2"
    },
    {
      "bufferView": 0,
      "byteOffset": 5441052,
      "componentType": 5125,
      "count": 259284,
      "type": "SCALAR"
    },
    {
      "bufferView": 2,
      "byteOffset": 9436608,
      "componentType": 5126,
      "count": 65532,
      "max": [
        21.041147232055664,
        13.05431079864502,
        22.262903213500977
      ],
      "min": [
        -15.79798698425293,
        -13.517141342163086,
        0.579808235168457
      ],
      "type": "VEC3"
    },
    {
      "bufferView": 2,
      "byteOffset": 10222992,
      "componentType": 5126,
      "count": 65532,
      "max": [
        0.9999967217445374,
        0.9999995827674866,
        1.0
      ],
      "min": [
        -0.9999997615814209,
        -0.9999987483024597,
        -1.0
      ],
      "type": "VEC3"
    },
    {
      "bufferView": 1,
      "byteOffset": 3145536,
      "componentType": 5126,
      "count": 65532,
      "max": [
        0.9997360110282898,
        0.9405519962310791
      ],
      "min": [
        0.00012199999764561653,
        0.0013940000208094716
      ],
      "type": "VEC2"
    },
    {
      "bufferView": 0,
      "byteOffset": 6478188,
      "componentType": 5125,
      "count": 249759,
      "type": "SCALAR"
    },
    {
      "bufferView": 2,
      "byteOffset": 11009376,
      "componentType": 5126,
      "count": 65532,
      "max": [
        17.117290496826172,
        13.104877471923828,
        22.248844146728516
      ],
      "min": [
        -17.060665130615234,
        -15.008349418640137,
        0.579808235168457
      ],
      "type": "VEC3"
    },
    {
      "bufferView": 2,
      "byteOffset": 11795760,
      "componentType": 5126,
      "count": 65532,
      "max": [
        0.9999974966049194,
        0.9999961853027344,
        0.9999999403953552
      ],
      "min": [
        -0.9999979138374329,
        -0.9999798536300659,
        -1.0
      ],
      "type": "VEC3"
    },
    {
      "bufferView": 1,
      "byteOffset": 3669792,
      "componentType": 5126,
      "count": 65532,
      "max": [
        0.9996939897537231,
        0.9405519962310791
      ],
      "min": [
        0.00012199999764561653,
        0.0003809999907389283
      ],
      "type": "VEC2"
    },
    {
      "bufferView": 0,
      "byteOffset": 7477224,
      "componentType": 5125,
      "count": 243624,
      "type": "SCALAR"
    },
    {
      "bufferView": 2,
      "byteOffset": 12582144,
      "componentType": 5126,
      "count": 65532,
      "max": [
        17.184114456176758,
        17.46222686767578,
        22.23442840576172
      ],
      "min": [
        -17.091514587402344,
        -14.997027397155762,
        1.0676994323730469
      ],
      "type": "VEC3"
    },
    {
      "bufferView": 2,
      "byteOffset": 13368528,
      "componentType": 5126,
      "count": 65532,
      "max": [
        0.9999974966049194,
        0.9999927878379822,
        1.0
      ],
      "min": [
        -0.9999881982803345,
        -0.9999490976333618,
        -1.0
      ],
      "type": "VEC3"
    },
    {
      "bufferView": 1,
      "byteOffset": 4194048,
      "componentType": 5126,
      "count": 65532,
      "max": [
        0.9997100234031677,
        0.9403079748153687
      ],
      "min": [
        0.00012199999764561653,
        0.0003800000122282654
      ],
      "type": "VEC2"
    },
    {
      "bufferView": 0,
      "byteOffset": 8451720,
      "componentType": 5125,
      "count": 229434,
      "type": "SCALAR"
    },
    {
      "bufferView": 2,
      "byteOffset": 14154912,
      "componentType": 5126,
      "count": 65532,
      "max": [
        16.25912857055664,
        13.190363883972168,
        22.253734588623047
      ],
      "min": [
        -16.64011001586914,
        -15.008349418640137,
        1.0973963737487793
      ],
      "type": "VEC3"
    },
    {
      "bufferView": 2,
      "byteOffset": 14941296,
      "componentType": 5126,
      "count": 65532,
      "max": [
        0.9999959468841553,
        0.9999978542327881,
        0.9999999403953552
      ],
      "min": [
        -0.9999993443489075,
        -0.9999966025352478,
        -1.0
      ],
      "type": "VEC3"
    },
    {
      "bufferView": 1,
      "byteOffset": 4718304,
      "componentType": 5126,
      "count": 65532,
      "max": [
        0.9998109936714172,
        0.9405519962310791
      ],
      "min": [
        0.00012199999764561653,
        0.041058000177145004
      ],
      "type": "VEC2"
    },
    {
      "bufferView": 0,
      "byteOffset": 9369456,
      "componentType": 5125,
      "count": 210633,
      "type": "SCALAR"
    },
    {
      "bufferView": 2,
      "byteOffset": 15727680,
      "componentType": 5126,
      "count": 65532,
      "max": [
        21.041147232055664,
        13.101195335388184,
        22.755001068115234
      ],
      "min": [
        -17.099777221679688,
        -17.115646362304688,
        1.1827211380004883
      ],
      "type": "VEC3"
    },
    {
      "bufferView": 2,
      "byteOffset": 16514064,
      "componentType": 5126,
      "count": 65532,
      "max": [
        0.9999966025352478,
        0.9999978542327881,
        1.0
      ],
      "min": [
        -0.9999988079071045,
        -0.9999917149543762,
        -1.0
      ],
      "type": "VEC3"
    },
    {
      "bufferView": 1,
      "byteOffset": 5242560,
      "componentType": 5126,
      "count": 65532,
      "max": [
        0.9997169971466064,
        0.9405519962310791
      ],
      "min": [
        0.00012199999764561653,
        0.001854000031016767
      ],
      "type": "VEC2"
    },
    {
      "bufferView": 0,
      "byteOffset": 10211988,
      "componentType": 5125,
      "count": 206679,
      "type": "SCALAR"
    },
    {
      "bufferView": 2,
      "byteOffset": 17300448,
      "componentType": 5126,
      "count": 65532,
      "max": [
        17.319883346557617,
        17.2571964263916,
        22.25476837158203
      ],
      "min": [
        -17.099777221679688,
        -14.650651931762695,
        0.579808235168457
      ],
      "type": "VEC3"
    },
    {
      "bufferView": 2,
      "byteOffset": 18086832,
      "componentType": 5126,
      "count": 65532,
      "max": [
        0.9999975562095642,
        0.9999946355819702,
        1.0
      ],
      "min": [
        -0.9999988079071045,
        -0.9999906420707703,
        -1.0
      ],
      "type": "VEC3"
    },
    {
      "bufferView": 1,
      "byteOffset": 5766816,
      "componentType": 5126,
      "count": 65532,
      "max": [
        0.9997310042381287,
        0.9405519962310791
      ],
      "min": [
        0.00012199999764561653,
        0.0003769999893847853
      ],
      "type": "VEC2"
    },
    {
      "bufferView": 0,
      "byteOffset": 11038704,
      "componentType": 5125,
      "count": 173796,
      "type": "SCALAR"
    },
    {
      "bufferView": 2,
      "byteOffset": 18873216,
      "componentType": 5126,
      "count": 30151,
      "max": [
        21.041147232055664,
        13.516133308410645,
        22.755001068115234
      ],
      "min": [
        -20.305931091308594,
        -16.905447006225586,
        0.579808235168457
      ],
      "type": "VEC3"
    },
    {
      "bufferView": 2,
      "byteOffset": 19235028,
      "componentType": 5126,
      "count": 30151,
      "max": [
        0.9999834895133972,
        0.9999898076057434,
        1.0
      ],
      "min": [
        -0.9999970197677612,
        -0.9999805092811584,
        -1.0
      ],
      "type": "VEC3"
    },
    {
      "bufferView": 1,
      "byteOffset": 6291072,
      "componentType": 5126,
      "count": 30151,
      "max": [
        0.9998149871826172,
        0.9403079748153687
      ],
      "min": [
        0.00012199999764561653,
        0.0004659999976865947
      ],
      "type": "VEC2"
    },
    {
      "bufferView": 0,
      "byteOffset": 11733888,
      "componentType": 5125,
      "count": 66522,
      "type": "SCALAR"
    }
  ],
  "asset": {
    "extras": {
      "author": "The Hallwyl Museum (Hallwylska museet) (https://sketchfab.com/TheHallwylMuseum)",
      "license": "CC-BY-4.0 (http://creativecommons.org/licenses/by/4.0/)",
      "source": "https://sketchfab.com/3d-models/the-morning-room-338cfb58457f41078fc8af7730b52482",
      "title": "The Morning Room"
    },
    "generator": "Sketchfab-12.65.0",
    "version": "2.0"
  },
  "bufferViews": [
    {
      "buffer": 0,
      "byteLength": 11999976,
      "name": "floatBufferViews",
      "target": 34963
    },
    {
      "buffer": 0,
      "byteLength": 6532280,
      "byteOffset": 11999976,
      "byteStride": 8,
      "name": "floatBufferViews",
      "target": 34962
    },
    {
      "buffer": 0,
      "byteLength": 19596840,
      "byteOffset": 18532256,
      "byteStride": 12,
      "name": "floatBufferViews",
      "target": 34962
    }
  ],
  "buffers": [
    {
      "byteLength": 38129096,
      "uri": "scene.bin"
    }
  ],
  "extensionsUsed": [
    "KHR_materials_unlit"
  ],
  "images": [
    {
      "uri": "textures/model_Material_u1_v1_baseColor.jpeg"
    }
  ],
  "materials": [
    {
      "extensions": {
        "KHR_materials_unlit": {}
      },
      "name": "model_Material_u1_v1",
      "pbrMetallicRoughness": {
        "baseColorTexture": {
          "index": 0
        },
        "metallicFactor": 0.0
      }
    }
  ],
  "meshes": [
    {
      "name": "Object_0",
      "primitives": [
        {
          "attributes": {
            "NORMAL": 1,
            "POSITION": 0,
            "TEXCOORD_0": 2
          },
          "indices": 3,
          "material": 0,
          "mode": 4
        }
      ]
    },
    {
      "name": "Object_1",
      "primitives": [
        {
          "attributes": {
            "NORMAL": 5,
            "POSITION": 4,
            "TEXCOORD_0": 6
          },
          "indices": 7,
          "material": 0,
          "mode": 4
        }
      ]
    },
    {
      "name": "Object_2",
      "primitives": [
        {
          "attributes": {
            "NORMAL": 9,
            "POSITION": 8,
            "TEXCOORD_0": 10
          },
          "indices": 11,
          "material": 0,
          "mode": 4
        }
      ]
    },
    {
      "name": "Object_3",
      "primitives": [
        {
          "attributes": {
            "NORMAL": 13,
            "POSITION": 12,
            "TEXCOORD_0": 14
          },
          "indices": 15,
          "material": 0,
          "mode": 4
        }
      ]
    },
    {
      "name": "Object_4",
      "primitives": [
        {
          "attributes": {
            "NORMAL": 17,
            "POSITION": 16,
            "TEXCOORD_0": 18
          },
          "indices": 19,
          "material": 0,
          "mode": 4
        }
      ]
    },
    {
      "name": "Object_5",
      "primitives": [
        {
          "attributes": {
            "NORMAL": 21,
            "POSITION": 20,
            "TEXCOORD_0": 22
          },
          "indices": 23,
          "material": 0,
          "mode": 4
        }
      ]
    },
    {
      "name": "Object_6",
      "primitives": [
        {
          "attributes": {
            "NORMAL": 25,
            "POSITION": 24,
            "TEXCOORD_0": 26
          },
          "indices": 27,
          "material": 0,
          "mode": 4
        }
      ]
    },
    {
      "name": "Object_7",
      "primitives": [
        {
          "attributes": {
            "NORMAL": 29,
            "POSITION": 28,
            "TEXCOORD_0": 30
          },
          "indices": 31,
          "material": 0,
          "mode": 4
        }
      ]
    },
    {
      "name": "Object_8",
      "primitives": [
        {
          "attributes": {
            "NORMAL": 33,
            "POSITION": 32,
            "TEXCOORD_0": 34
          },
          "indices": 35,
          "material": 0,
          "mode": 4
        }
      ]
    },
    {
      "name": "Object_9",
      "primitives": [
        {
          "attributes": {
            "NORMAL": 37,
            "POSITION": 36,
            "TEXCOORD_0": 38
          },
          "indices": 39,
          "material": 0,
          "mode": 4
        }
      ]
    },
    {
      "name": "Object_10",
      "primitives": [
        {
          "attributes": {
            "NORMAL": 41,
            "POSITION": 40,
            "TEXCOORD_0": 42
          },
          "indices": 43,
          "material": 0,
          "mode": 4
        }
      ]
    },
    {
      "name": "Object_11",
      "primitives": [
        {
          "attributes": {
            "NORMAL": 45,
            "POSITION": 44,
            "TEXCOORD_0": 46
          },
          "indices": 47,
          "material": 0,
          "mode": 4
        }
      ]
    },
    {
      "name": "Object_12",
      "primitives": [
        {
          "attributes": {
            "NORMAL": 49,
            "POSITION": 48,
            "TEXCOORD_0": 50
          },
          "indices": 51,
          "material": 0,
          "mode": 4
        }
      ]
    }
  ],
  "nodes": [
    {
      "children": [
        1
      ],
      "matrix": [
        0.22957807779312134,
        0.0,
        0.0,
        0.0,
        0.0,
        5.097657358302173e-17,
        -0.22957807779312134,
        0.0,
        0.0,
        0.22957807779312134,
        5.097657358302173e-17,
        0.0,
        0.0,
        0.0,
        0.0,
        1.0
      ],
      "name": "Sketchfab_model"
    },
    {
      "children": [
        2,
        3,
        4,
        5,
        6,
        7,
        8,
        9,
        10,
        11,
        12,
        13,
        14
      ],
      "name": "model.obj.cleaner.materialmerger.gles"
    },
    {
      "mesh": 0,
      "name": "Object_2"
    },
    {
      "mesh": 1,
      "name": "Object_3"
    },
    {
      "mesh": 2,
      "name": "Object_4"
    },
    {
      "mesh": 3,
      "name": "Object_5"
    },
    {
      "mesh": 4,
      "name": "Object_6"
    },
    {
      "mesh": 5,
      "name": "Object_7"
    },
    {
      "mesh": 6,
      "name": "Object_8"
    },
    {
      "mesh": 7,
      "name": "Object_9"
    },
    {
      "mesh": 8,
      "name": "Object_10"
    },
    {
      "mesh": 9,
      "name": "Object_11"
    },
    {
      "mesh": 10,
      "name": "Object_12"
    },
    {
      "mesh": 11,
      "name": "Object_13"
    },
    {
      "mesh": 12,
      "name": "Object_14"
    }
  ],
  "samplers": [
    {
      "magFilter": 9729,
      "minFilter": 9987,
      "wrapS": 10497,
      "wrapT": 10497
    }
  ],
  "scene": 0,
  "scenes": [
    {
      "name": "Sketchfab_Scene",
      "nodes": [
        0
      ]
    }
  ],
  "textures": [
    {
      "sampler": 0,
      "source": 0
    }
  ]
}
